<?xml version="1.0" encoding="UTF-8" standalone="no"?>
<!-- Created with Inkscape (http://www.inkscape.org/) -->

<svg
   xmlns:dc="http://purl.org/dc/elements/1.1/"
   xmlns:cc="http://creativecommons.org/ns#"
   xmlns:rdf="http://www.w3.org/1999/02/22-rdf-syntax-ns#"
   xmlns:svg="http://www.w3.org/2000/svg"
   xmlns="http://www.w3.org/2000/svg"
   xmlns:sodipodi="http://sodipodi.sourceforge.net/DTD/sodipodi-0.dtd"
   xmlns:inkscape="http://www.inkscape.org/namespaces/inkscape"
   width="210mm"
   height="297mm"
   viewBox="0 0 744.09448819 1052.3622047"
   id="svg4001"
   version="1.1"
   inkscape:version="0.91 r13725"
   sodipodi:docname="borrar.svg">
  <defs
     id="defs4003" />
  <sodipodi:namedview
     id="base"
     pagecolor="#ffffff"
     bordercolor="#666666"
     borderopacity="1.0"
     inkscape:pageopacity="0.0"
     inkscape:pageshadow="2"
     inkscape:zoom="0.35"
     inkscape:cx="-919.28571"
     inkscape:cy="520"
     inkscape:document-units="px"
     inkscape:current-layer="layer1"
     showgrid="false"
     inkscape:window-width="1536"
     inkscape:window-height="801"
     inkscape:window-x="-8"
     inkscape:window-y="-8"
     inkscape:window-maximized="1" />
  <metadata
     id="metadata4006">
    <rdf:RDF>
      <cc:Work
         rdf:about="">
        <dc:format>image/svg+xml</dc:format>
        <dc:type
           rdf:resource="http://purl.org/dc/dcmitype/StillImage" />
        <dc:title />
      </cc:Work>
    </rdf:RDF>
  </metadata>
  <g
     inkscape:label="Capa 1"
     inkscape:groupmode="layer"
     id="layer1">
    <g
       transform="matrix(27.153846,0,0,31.900135,-6281.2638,-7257.1513)"
       id="Icon_Trash"
       style="fill:#594f4f;fill-opacity:1">
      <rect
         style="fill:#594f4f;fill-opacity:1"
         x="240"
         y="238"
         width="2"
         height="16"
         id="rect16" />
      <rect
         style="fill:#594f4f;fill-opacity:1"
         x="244"
         y="238"
         width="2"
         height="16"
         id="rect18" />
      <rect
         style="fill:#594f4f;fill-opacity:1"
         x="248"
         y="238"
         width="2"
         height="16"
         id="rect20" />
      <rect
         style="fill:#594f4f;fill-opacity:1"
         x="232"
         y="232"
         width="26"
         height="2"
         id="rect22" />
      <path
         style="fill:#594f4f;fill-opacity:1"
         inkscape:connector-curvature="0"
         d="m 249.9,233 -1.9,0 0,-2 c 0,-0.6 -0.5,-1.1 -1.1,-1.1 l -4,0 c -0.6,0 -1.1,0.5 -1.1,1.1 l 0,2 -1.9,0 0,-2 c 0,-1.6 1.3,-2.9 2.9,-2.9 l 4,0 c 1.6,0 2.9,1.3 2.9,2.9 l 0,2 z"
         id="path24" />
      <path
         style="fill:#594f4f;fill-opacity:1"
         inkscape:connector-curvature="0"
         d="m 251,260 -12,0 c -1.6,0 -3,-1.3 -3.2,-2.9 l -1.8,-24 2,-0.2 1.8,24 c 0,0.6 0.6,1.1 1.2,1.1 l 12,0 c 0.6,0 1.1,-0.5 1.2,-1.1 l 1.8,-24 2,0.2 -1.8,24 c -0.2,1.6 -1.6,2.9 -3.2,2.9 z"
         id="path26" />
    </g>
  </g>
</svg>
