<?xml version="1.0" encoding="UTF-8" standalone="no"?>
<!-- Created with Inkscape (http://www.inkscape.org/) -->

<svg
   xmlns:dc="http://purl.org/dc/elements/1.1/"
   xmlns:cc="http://creativecommons.org/ns#"
   xmlns:rdf="http://www.w3.org/1999/02/22-rdf-syntax-ns#"
   xmlns:svg="http://www.w3.org/2000/svg"
   xmlns="http://www.w3.org/2000/svg"
   xmlns:sodipodi="http://sodipodi.sourceforge.net/DTD/sodipodi-0.dtd"
   xmlns:inkscape="http://www.inkscape.org/namespaces/inkscape"
   width="210mm"
   height="297mm"
   viewBox="0 0 744.09448819 1052.3622047"
   id="svg5921"
   version="1.1"
   inkscape:version="0.91 r13725"
   sodipodi:docname="github.svg">
  <defs
     id="defs5923" />
  <sodipodi:namedview
     id="base"
     pagecolor="#ffffff"
     bordercolor="#666666"
     borderopacity="1.0"
     inkscape:pageopacity="0.0"
     inkscape:pageshadow="2"
     inkscape:zoom="0.35"
     inkscape:cx="-487.85714"
     inkscape:cy="520"
     inkscape:document-units="px"
     inkscape:current-layer="layer1"
     showgrid="false"
     inkscape:window-width="1536"
     inkscape:window-height="801"
     inkscape:window-x="-8"
     inkscape:window-y="-8"
     inkscape:window-maximized="1" />
  <metadata
     id="metadata5926">
    <rdf:RDF>
      <cc:Work
         rdf:about="">
        <dc:format>image/svg+xml</dc:format>
        <dc:type
           rdf:resource="http://purl.org/dc/dcmitype/StillImage" />
        <dc:title />
      </cc:Work>
    </rdf:RDF>
  </metadata>
  <g
     inkscape:label="Capa 1"
     inkscape:groupmode="layer"
     id="layer1">
    <path
       inkscape:connector-curvature="0"
       style="clip-rule:evenodd;fill:#45ada8;fill-rule:evenodd;fill-opacity:1"
       id="Icon_GitHub"
       d="m 371.23538,169.18301 c -207.36574,0 -374.7573643,162.64439 -374.7573643,364.12923 0,160.21688 107.4304443,296.15845 257.3333943,344.70903 19.98706,2.42749 24.98382,-7.28257 24.98382,-16.99271 0,-9.71006 0,-31.55787 0,-63.11574 -104.93206,21.84776 -127.4175,-48.55055 -127.4175,-48.55055 -17.48868,-41.26799 -42.47251,-53.40564 -42.47251,-53.40564 -34.977348,-21.84775 2.49839,-21.84775 2.49839,-21.84775 37.47573,2.42754 57.46279,36.41292 57.46279,36.41292 32.47898,55.83317 87.44339,38.84047 109.92883,29.13035 2.49838,-24.27528 12.49192,-38.84046 24.98382,-48.55057 -82.4466,-9.7101 -169.89,-41.26798 -169.89,-179.6371 0,-38.84044 14.99029,-72.82584 37.47574,-97.10111 -4.99677,-9.71012 -17.48868,-46.12304 2.49838,-97.10114 0,0 32.47897,-9.71011 102.43368,36.41292 29.98058,-7.28258 62.45957,-12.13764 94.93853,-12.13764 32.47898,0 64.95795,4.85506 94.93853,12.13764 72.45311,-46.12303 102.43369,-36.41292 102.43369,-36.41292 19.98706,50.9781 7.49514,87.39102 2.49838,97.10114 24.98382,24.27527 37.47574,58.26067 37.47574,97.10111 0,140.79665 -87.44339,169.927 -169.89001,179.6371 12.49192,12.13764 24.98382,33.9854 24.98382,67.9708 0,48.55055 0,87.39105 0,99.52868 0,9.71007 7.49516,21.8477 24.98382,16.99271 C 638.5623,827.04317 743.49437,691.10158 743.49437,530.88472 745.99275,331.8274 578.60112,169.18301 371.23538,169.18301 Z" />
  </g>
</svg>
