<?xml version="1.0" encoding="UTF-8" standalone="no"?>
<!-- Created with Inkscape (http://www.inkscape.org/) -->

<svg
   xmlns:dc="http://purl.org/dc/elements/1.1/"
   xmlns:cc="http://creativecommons.org/ns#"
   xmlns:rdf="http://www.w3.org/1999/02/22-rdf-syntax-ns#"
   xmlns:svg="http://www.w3.org/2000/svg"
   xmlns="http://www.w3.org/2000/svg"
   xmlns:sodipodi="http://sodipodi.sourceforge.net/DTD/sodipodi-0.dtd"
   xmlns:inkscape="http://www.inkscape.org/namespaces/inkscape"
   width="210mm"
   height="297mm"
   viewBox="0 0 744.09448819 1052.3622047"
   id="svg5349"
   version="1.1"
   inkscape:version="0.91 r13725"
   sodipodi:docname="twitter.svg">
  <defs
     id="defs5351" />
  <sodipodi:namedview
     id="base"
     pagecolor="#ffffff"
     bordercolor="#666666"
     borderopacity="1.0"
     inkscape:pageopacity="0.0"
     inkscape:pageshadow="2"
     inkscape:zoom="0.35"
     inkscape:cx="-1350.7143"
     inkscape:cy="520"
     inkscape:document-units="px"
     inkscape:current-layer="layer1"
     showgrid="false"
     inkscape:window-width="1536"
     inkscape:window-height="801"
     inkscape:window-x="-8"
     inkscape:window-y="-8"
     inkscape:window-maximized="1" />
  <metadata
     id="metadata5354">
    <rdf:RDF>
      <cc:Work
         rdf:about="">
        <dc:format>image/svg+xml</dc:format>
        <dc:type
           rdf:resource="http://purl.org/dc/dcmitype/StillImage" />
        <dc:title />
      </cc:Work>
    </rdf:RDF>
  </metadata>
  <g
     inkscape:label="Capa 1"
     inkscape:groupmode="layer"
     id="layer1">
    <path
       inkscape:connector-curvature="0"
       style="fill:#424242;fill-opacity:1"
       id="Icon_Twitter"
       d="m 734.60001,277.25447 c -27.68514,13.17185 -55.37026,21.07496 -88.08904,26.3437 30.20195,-21.07496 55.37025,-50.05303 67.9544,-86.93419 -30.20197,18.44058 -62.92075,31.61242 -95.63954,39.51554 -27.68511,-31.61244 -67.9544,-50.05302 -110.7405,-50.05302 -83.05539,0 -151.00979,71.12797 -151.00979,160.69653 0,13.17184 0,23.70932 5.03366,36.88116 -125.84149,-5.26872 -239.09882,-71.12796 -314.603716,-165.96527 -12.584149,23.70934 -20.134638,50.05302 -20.134638,79.03109 0,55.32175 27.685126,105.37478 67.954403,131.71847 -25.168298,0 -47.819765,-7.90311 -70.471233,-21.07494 0,0 0,0 0,2.63435 0,76.39672 52.853424,142.25595 123.324664,155.42779 -12.58415,2.63439 -25.1683,5.26874 -40.26928,5.26874 -10.067323,0 -20.134641,0 -27.68513,-2.63435 20.13464,63.22486 75.5049,110.6435 143.45929,110.6435 -52.85342,42.14992 -118.29099,68.49361 -188.762225,68.49361 -12.58415,0 -25.1682979,0 -35.23561646,-2.63438 C 67.640121,809.3971 145.66185,835.74078 233.75088,835.74078 c 279.36812,0 432.89472,-242.36198 432.89472,-453.11154 0,-7.90311 0,-13.17185 0,-21.07495 22.65147,-23.70932 47.81977,-50.05302 67.95441,-84.29982 z" />
  </g>
</svg>
