<?xml version="1.0" encoding="UTF-8" standalone="no"?>
<!-- Created with Inkscape (http://www.inkscape.org/) -->

<svg
   xmlns:dc="http://purl.org/dc/elements/1.1/"
   xmlns:cc="http://creativecommons.org/ns#"
   xmlns:rdf="http://www.w3.org/1999/02/22-rdf-syntax-ns#"
   xmlns:svg="http://www.w3.org/2000/svg"
   xmlns="http://www.w3.org/2000/svg"
   xmlns:sodipodi="http://sodipodi.sourceforge.net/DTD/sodipodi-0.dtd"
   xmlns:inkscape="http://www.inkscape.org/namespaces/inkscape"
   width="210mm"
   height="297mm"
   viewBox="0 0 744.09448819 1052.3622047"
   id="svg5359"
   version="1.1"
   inkscape:version="0.91 r13725"
   sodipodi:docname="linkedin.svg">
  <defs
     id="defs5361" />
  <sodipodi:namedview
     id="base"
     pagecolor="#ffffff"
     bordercolor="#666666"
     borderopacity="1.0"
     inkscape:pageopacity="0.0"
     inkscape:pageshadow="2"
     inkscape:zoom="0.35"
     inkscape:cx="-56.428571"
     inkscape:cy="520"
     inkscape:document-units="px"
     inkscape:current-layer="Icon_LinkedIn"
     showgrid="false"
     inkscape:window-width="1536"
     inkscape:window-height="801"
     inkscape:window-x="-8"
     inkscape:window-y="-8"
     inkscape:window-maximized="1" />
  <metadata
     id="metadata5364">
    <rdf:RDF>
      <cc:Work
         rdf:about="">
        <dc:format>image/svg+xml</dc:format>
        <dc:type
           rdf:resource="http://purl.org/dc/dcmitype/StillImage" />
        <dc:title></dc:title>
      </cc:Work>
    </rdf:RDF>
  </metadata>
  <g
     inkscape:label="Capa 1"
     inkscape:groupmode="layer"
     id="layer1">
    <g
       transform="matrix(28.252747,0,0,23.967033,-2315.4396,-17321.649)"
       id="Icon_LinkedIn">
      <path
         style="fill:#6d6d6d;fill-opacity:1"
         inkscape:connector-curvature="0"
         d="m 106.1,732 -22.2,0 c -1.1,0 -1.9,0.8 -1.9,1.9 l 0,22.2 c 0,1 0.9,1.9 1.9,1.9 l 22.2,0 c 1.1,0 1.9,-0.8 1.9,-1.9 l 0,-22.2 c 0,-1.1 -0.9,-1.9 -1.9,-1.9 z m -16.1,22 -4,0 0,-12 4,0 0,12 z m -2,-13.6 c -1.3,0 -2.4,-1.1 -2.4,-2.4 0,-1.3 1.1,-2.4 2.4,-2.4 1.3,0 2.4,1.1 2.4,2.4 0,1.3 -1.1,2.4 -2.4,2.4 z m 16,13.6 -4,0 0,-6 c 0,-1.6 -0.4,-3.2 -2,-3.2 -1.6,0 -2,1.6 -2,3.2 l 0,6 -4,0 0,-12 4,0 0,1.4 0.2,0 c 0.5,-1 1.8,-1.8 3.3,-1.8 3.7,0 4.5,2.4 4.5,5.4 l 0,7 z"
         id="path433" />
    </g>
  </g>
</svg>
